<?xml version="1.0" encoding="iso-8859-1"?>
<!-- Generator: Adobe Illustrator 18.0.0, SVG Export Plug-In . SVG Version: 6.00 Build 0)  -->
<!DOCTYPE svg PUBLIC "-//W3C//DTD SVG 1.1//EN" "http://www.w3.org/Graphics/SVG/1.1/DTD/svg11.dtd">
<svg version="1.1" id="_x33_" xmlns="http://www.w3.org/2000/svg" xmlns:xlink="http://www.w3.org/1999/xlink" x="0px" y="0px"
	 viewBox="0 0 512 512" style="enable-background:new 0 0 512 512;" xml:space="preserve">
<g>
	<rect style="fill:#525252;" width="512" height="512"/>
	<path style="opacity:0.1;fill:#231815;" d="M512,204.8V512H221.798l-75.981-75.981l-27.75-27.699v-9.165
		c0-9.933,5.222-18.637,13.107-23.501c-0.563-3.43-0.819-6.912-0.819-10.496v-79.77c-15.258-0.051-27.648-12.493-27.648-27.75
		v-22.63c0-15.309,12.442-27.75,27.75-27.75h4.608v-59.341c0,0-2.97-0.102-7.066-1.434l33.485-33.485
		c6.502,7.27,11.366,12.749,11.366,12.749h166.246c0,0,36.71-40.96,42.854-48.282c0.461-0.512,0.973-0.922,1.536-1.126l20.07,20.019
		L512,204.8z"/>
	<g>
		<path style="fill:#7DB9B5;" d="M197.533,432.311c-37.035,0-67.16-30.13-67.16-67.165v-89.552c0-37.038,30.125-67.165,67.16-67.165
			h116.925c37.03,0,67.165,30.128,67.165,67.165v89.552c0,37.035-30.135,67.165-67.165,67.165H197.533z"/>
		<path style="fill:#AF8289;" d="M351.768,365.146c0,20.605-16.7,37.315-37.305,37.315H197.538c-20.6,0-37.31-16.71-37.31-37.315
			v-89.552c0-20.607,16.71-37.315,37.31-37.315h116.925c20.605,0,37.305,16.708,37.305,37.315V365.146z"/>
		<path style="fill:#7DB9B5;" d="M381.963,77.446c-6.136,7.36-42.84,48.292-42.84,48.292h-73.616h-19.014h-73.616
			c0,0-36.71-40.932-42.835-48.292c-6.135-7.357-28.205,13.487-23.295,41.692c4.9,28.208,28.3,28.775,28.3,28.775v82.187h111.445
			h19.014h111.45v-82.187c0,0,23.39-0.568,28.3-28.775C410.158,90.933,388.092,70.089,381.963,77.446z"/>
		<g>
			<path style="fill:#F5F4F8;" d="M208.377,312.613c0,7.566-6.13,13.698-13.695,13.698l0,0c-7.56,0-13.7-6.132-13.7-13.698v-33.917
				c0-7.568,6.14-13.698,13.7-13.698l0,0c7.565,0,13.695,6.13,13.695,13.698V312.613z"/>
			<path style="fill:#F5F4F8;" d="M331.012,310.006c0,7.566-6.135,13.696-13.7,13.696l0,0c-7.565,0-13.695-6.13-13.695-13.696
				v-33.917c0-7.568,6.13-13.7,13.695-13.7l0,0c7.565,0,13.7,6.132,13.7,13.7V310.006z"/>
		</g>
		<g>
			<path style="fill:#F5F4F8;" d="M211.242,387.813c0,6.923-5.61,12.533-12.53,12.533l0,0c-6.915,0-12.535-5.61-12.535-12.533
				v-31.03c0-6.923,5.62-12.533,12.535-12.533l0,0c6.92,0,12.53,5.61,12.53,12.533V387.813z"/>
			<path style="fill:#F5F4F8;" d="M325.822,387.813c0,6.923-5.615,12.533-12.535,12.533l0,0c-6.915,0-12.53-5.61-12.53-12.533
				v-31.03c0-6.923,5.615-12.533,12.53-12.533l0,0c6.92,0,12.535,5.61,12.535,12.533V387.813z"/>
		</g>
		<path style="fill:#91D0C9;" d="M261.788,207.274h-11.575H130.447c-15.315,0-27.735,12.418-27.735,27.732v22.623
			c0,15.317,12.42,27.735,27.735,27.735h119.765h11.575h119.765c15.315,0,27.735-12.418,27.735-27.735v-22.623
			c0-15.315-12.42-27.732-27.735-27.732H261.788z"/>
		<g>
			<g>
				<path style="fill:#91D0C9;" d="M224.468,228.146c0,20.892-16.945,37.83-37.84,37.83c-20.885,0-37.825-16.938-37.825-37.83
					c0-20.898,16.94-37.832,37.825-37.832C207.523,190.314,224.468,207.248,224.468,228.146z"/>
				<path style="fill:#5E9C96;" d="M186.628,242.494c-7.91,0-14.345-6.438-14.345-14.348c0-7.915,6.435-14.35,14.345-14.35
					c7.915,0,14.35,6.435,14.35,14.35C200.977,236.056,194.542,242.494,186.628,242.494z"/>
			</g>
			<g>
				<path style="fill:#91D0C9;" d="M363.198,228.146c0,20.892-16.935,37.83-37.83,37.83c-20.89,0-37.83-16.938-37.83-37.83
					c0-20.898,16.94-37.832,37.83-37.832C346.262,190.314,363.198,207.248,363.198,228.146z"/>
				<path style="fill:#5E9C96;" d="M325.368,242.494c-7.91,0-14.345-6.438-14.345-14.348c0-7.915,6.435-14.35,14.345-14.35
					c7.915,0,14.35,6.435,14.35,14.35C339.718,236.056,333.283,242.494,325.368,242.494z"/>
			</g>
		</g>
		<path style="fill:#91D0C9;" d="M261.202,371.428h-10.41H145.807c-15.315,0-27.735,12.418-27.735,27.735v9.148
			c0,15.316,12.42,27.732,27.735,27.732h104.985h10.41h104.985c15.32,0,27.735-12.417,27.735-27.732v-9.148
			c0-15.317-12.415-27.735-27.735-27.735H261.202z"/>
		<g>
			<g>
				<path style="fill:#564236;" d="M172.202,161.226h-15.92l5.145,6.977c-0.665,1.483-1.05,3.105-1.05,4.822
					c0,6.526,5.29,11.82,11.825,11.82c6.515,0,11.805-5.295,11.805-11.82C184.008,166.514,178.718,161.226,172.202,161.226z"/>
			</g>
			<g>
				<path style="fill:#564236;" d="M339.798,161.226h15.925l-5.15,6.977c0.665,1.483,1.045,3.105,1.045,4.822
					c0,6.526-5.285,11.82-11.82,11.82c-6.515,0-11.805-5.295-11.805-11.82C327.992,166.514,333.283,161.226,339.798,161.226z"/>
			</g>
		</g>
		<path style="opacity:0.08;fill:#564236;" d="M381.553,207.274h-4.596v-59.36c0,0,23.39-0.568,28.3-28.775
			c4.9-28.205-17.165-49.05-23.295-41.692c-6.136,7.36-42.84,48.292-42.84,48.292h-73.616h-6.02v310.305h1.715h104.985
			c15.32,0,27.735-12.417,27.735-27.732v-9.148c0-9.982-5.29-18.702-13.195-23.587c0.535-3.407,0.895-6.875,0.895-10.43v-79.788
			c15.28-0.04,27.665-12.437,27.665-27.73v-22.623C409.288,219.691,396.868,207.274,381.553,207.274z"/>
	</g>
</g>
</svg>
